<?xml version="1.0" encoding="UTF-8" standalone="no"?>
<!-- Created with Inkscape (http://www.inkscape.org/) -->

<svg
   xmlns:dc="http://purl.org/dc/elements/1.1/"
   xmlns:cc="http://creativecommons.org/ns#"
   xmlns:rdf="http://www.w3.org/1999/02/22-rdf-syntax-ns#"
   xmlns:svg="http://www.w3.org/2000/svg"
   xmlns="http://www.w3.org/2000/svg"
   xmlns:sodipodi="http://sodipodi.sourceforge.net/DTD/sodipodi-0.dtd"
   xmlns:inkscape="http://www.inkscape.org/namespaces/inkscape"
   width="33"
   height="29.873154"
   id="svg2"
   version="1.1"
   inkscape:version="0.48.3.1 r9886"
   sodipodi:docname="poll.svg"
   inkscape:export-filename="/home/chris/Dev/theme-ubuntuusers/inyoka_theme_ubuntuusers/static/forum/img/poll.png"
   inkscape:export-xdpi="93"
   inkscape:export-ydpi="93">
  <defs
     id="defs4" />
  <sodipodi:namedview
     id="base"
     pagecolor="#ffffff"
     bordercolor="#666666"
     borderopacity="1.0"
     inkscape:pageopacity="0.0"
     inkscape:pageshadow="2"
     inkscape:zoom="4.6904004"
     inkscape:cx="-32.206624"
     inkscape:cy="7.7717395"
     inkscape:document-units="px"
     inkscape:current-layer="layer1"
     showgrid="false"
     inkscape:window-width="1595"
     inkscape:window-height="792"
     inkscape:window-x="0"
     inkscape:window-y="25"
     inkscape:window-maximized="1"
     fit-margin-top="0"
     fit-margin-left="0"
     fit-margin-right="0"
     fit-margin-bottom="0" />
  <metadata
     id="metadata7">
    <rdf:RDF>
      <cc:Work
         rdf:about="">
        <dc:format>image/svg+xml</dc:format>
        <dc:type
           rdf:resource="http://purl.org/dc/dcmitype/StillImage" />
        <dc:title></dc:title>
      </cc:Work>
    </rdf:RDF>
  </metadata>
  <g
     inkscape:label="Ebene 1"
     inkscape:groupmode="layer"
     id="layer1"
     transform="translate(-635.12026,-622.22254)">
    <path
       style="fill:#bee4ed;fill-opacity:1;stroke-width:0.20000000000000001;stroke-miterlimit:4;stroke-dasharray:none;stroke:#969696;stroke-opacity:1"
       d="m 643.08441,652.09405 c 0,0 2.73579,-3.95111 6.03579,-7.49836 6.45593,-6.93965 7.26575,-9.50003 3.77749,-11.9433 -2.95297,-2.06834 -6.35269,-1.93241 -11.63669,0.46526 -2.39757,1.08792 -6.10904,2.83866 -6.10904,2.83866 0,0 -0.0317,-6.87002 -0.0317,-10.53959 l 2.75,-1.29326 c 1.5125,-0.71129 6.01689,-1.51798 10.00975,-1.79265 12.84311,-0.88346 20.24025,3.67226 20.24025,12.46548 0,5.40526 -1.04842,7.5683 -6.325,13.0494 l -4.09142,4.25 z"
       id="path3793" />
    <path
       style="fill:#87cdde;stroke:none"
       d="m 709.49062,570.20543 c 0,0 12.55962,-12.48802 12.03487,-16.30928 -1.13702,-8.27984 -14.94263,-1.5435 -19.26841,0.0275 l -0.091,-10.58507 c 26.86905,-9.04095 46.5199,2.66175 23.36828,27.03704 z"
       id="path2996"
       inkscape:connector-curvature="0"
       sodipodi:nodetypes="cscccc" />
    <a
       id="a3006"
       transform="matrix(1.0163326,0,0,0.98696166,-10.042473,8.4815188)" />
  </g>
</svg>
