<?xml version="1.0" encoding="UTF-8"?>
<svg version="1.1" viewBox="0 0 163.1 31.43" xmlns="http://www.w3.org/2000/svg"><g fill="#fff"><path transform="matrix(.1333 0 0 -.1333 0 31.43)" d="m147.2 24.48c1.8-8.281 1.082-11.89-9.356-16.2-14.4-5.039-37.8-8.281-55.07-8.281-71.99 0-82.79 45.71-82.79 92.86 0 43.56 12.24 91.43 82.79 91.43 19.08 0 41.04-2.524 56.52-8.996 6.117-2.52 8.636-6.481 7.554-13.32l-3.957-21.96c-1.801-7.559-3.597-6.84-13.68-6.118-14.4 1.442-27.36 2.52-38.88 2.52-24.12 0-34.2-13.32-34.2-42.48 0-34.91 8.641-46.07 33.47-46.07 10.08 0 27.72 1.086 43.2 2.883 7.559 1.082 9.356 1.082 10.79-6.477l3.602-19.79"/><path transform="matrix(.1333 0 0 -.1333 0 31.43)" d="m225.1 111.6h50.04c0 17.28-6.121 30.6-24.84 30.6-16.92 0-24.11-10.8-25.2-30.6zm-0.723-32.39c1.441-27.71 14.76-33.48 38.88-33.48 11.16 0 27.72 1.797 42.47 3.602 9.36 1.074 10.44 1.074 12.24-7.918l2.883-16.91c1.437-8.281 1.437-11.89-9.364-16.2-14.4-5.039-40.67-8.281-57.95-8.281-72.35 0-85.31 43.2-85.31 90.7 0 34.56 6.48 93.59 82.07 93.59 68.75 0 81.35-43.56 81.71-82.07 0-14.77-4.317-23.04-19.8-23.04h-87.83"/><path transform="matrix(.1333 0 0 -.1333 0 31.43)" d="m520.9 3.242h-39.59c-5.758 0-7.918 2.883-7.918 7.559 0 31.67 0.355 62.99 0.355 94.3 0 19.8-6.476 27.73-21.96 27.73-11.52 0-26.63-7.558-35.27-10.44v-111.6c0-3.602-1.078-7.559-7.559-7.559h-39.23c-6.125 0-7.922 2.883-7.922 7.559v162c0 4.676 1.797 7.914 7.922 7.914h39.23c6.481 0 7.559-4.316 7.559-7.914v-8.644c0.363 0 0.719-0.356 1.082-0.356 15.84 11.88 39.23 20.16 56.51 20.16 51.11 0 54.36-37.44 54.36-70.92v-102.2c0-3.602-1.086-7.559-7.562-7.559"/><path transform="matrix(.1333 0 0 -.1333 0 31.43)" d="m689 19.45c1.446-5.402-1.796-10.08-6.472-11.52-17.28-5.762-41.04-7.559-52.56-7.559-45.35 0-53.27 27.71-53.27 57.23v80.27h-15.84c-5.758 0-7.559 2.52-7.559 7.918v27c0 5.395 1.801 7.914 7.559 7.914h16.2v35.28c0 5.757 3.234 7.922 7.918 9.355l36.35 9.723c5.039 1.797 9-0.363 9-6.117v-48.24h36.72c6.477 0 7.559-2.519 7.559-7.558v-27.36c0-5.398-1.082-7.918-7.559-7.918h-37.08l0.364-66.95c0-13.67 1.078-19.07 21.96-19.43 5.754 0 15.83 0.7226 24.84 1.434 4.676 0 7.559 0.7226 8.633-7.559l3.242-25.91"/><path transform="matrix(.1333 0 0 -.1333 0 31.43)" d="m769.2 155.9 0.711-0.722c12.96 13.32 37.08 25.2 52.2 27.72 7.559 1.079 10.8 0.715 11.88-8.281l4.329-35.27c0.711-6.481 0.711-8.645-10.08-10.8-21.24-3.961-41.76-9.363-59.04-15.48v-101.9c0-3.606-1.086-7.922-7.558-7.922h-39.6c-6.121 0-7.918 3.242-7.918 7.922v162c0 4.683 1.797 7.918 7.918 7.918h39.24c6.836 0 7.922-4.676 7.922-7.918v-17.28"/><path transform="matrix(.1333 0 0 -.1333 0 31.43)" d="m940.3 137.5c-21.96 0-27.73-15.84-27.73-45 0-31.31 5.403-45.34 27-45.34 24.11 0 29.16 14.75 29.16 45.34 0 30.25-4.324 45-28.43 45zm-0.727-137.1c-77.39 0-82.43 55.07-82.43 94.3 0 32.75 8.64 89.63 82.43 89.63 74.15 0 85.31-47.88 85.31-89.63 0-39.24-6.12-94.3-85.31-94.3"/><path transform="matrix(.1333 0 0 -.1333 0 31.43)" d="m1216 3.242h-39.59c-5.76 0-7.92 2.883-7.92 7.559 0 31.67 0.36 62.99 0.36 94.3 0 19.8-6.48 27.73-21.96 27.73-11.51 0-26.63-7.558-35.27-10.44v-111.6c0-3.602-1.09-7.559-7.56-7.559h-39.24c-6.11 0-7.92 2.883-7.92 7.559v162c0 4.676 1.81 7.914 7.92 7.914h39.24c6.47 0 7.56-4.316 7.56-7.914v-8.644c0.36 0 0.72-0.356 1.08-0.356 15.83 11.88 39.23 20.16 56.52 20.16 51.11 0 54.34-37.44 54.34-70.92v-102.2c0-3.602-1.07-7.559-7.56-7.559"/></g></svg>
