<?xml version="1.0" encoding="UTF-8"?>
<svg version="1.1" viewBox="0 0 245 76" xmlns="http://www.w3.org/2000/svg" xmlns:osb="http://www.openswatchbook.org/uri/2009/osb">
 <g transform="translate(-46.672 224.03)">
  <g transform="matrix(.99057 0 0 .99057 42.161 -235.37)" fill-rule="evenodd" stroke="#000">
   <path d="m13.106 34.589s-2 0-3-1c-1-1-1-3-1-3v-10s0-2 1-3c1-1 3-1 3-1h10s2 0 3 1 1 3 1 3v10s0 2-1 3-3 1-3 1z" fill="#fb8b00" stroke-width="1.0136px"/>
   <path d="m34.106 34.589s-2 0-3-1-1-3-1-3v-10s0-2 1-3 3-1 3-1h10s2 0 3 1 1 3 1 3v10s0 2-1 3-3 1-3 1z" fill="#f44800" stroke-width="1.0136px"/>
   <path d="m13.106 37.589s-2 0-3 1c-1 1-1 3-1 3v38s0 2 1 3c1 1 3 1 3 1h10s2 0 3-1 1-3 1-3v-25s0-2 1-3 3-1 3-1h13s2 0 3-1 1-3 1-3v-5s0-2-1-3-3-1-3-1z" fill="#d40000" stroke-width="1px"/>
   <path d="m35.106 54.589s-2 0-3 1-1 3-1 3v21s0 2 1 3 3 1 3 1h9s2 0 3-1 1-3 1-3v-21s0-2-1-3-3-1-3-1z" fill="#fb8b00" stroke-width="1px"/>
  </g>
  <g aria-label="ubuntuusers">
   <path d="m113.5-187.53q-1.1934 0.34546-3.0777 0.62811-1.8843 0.31405-3.9571 0.31405-2.1042 0-3.5174-0.56529-1.3818-0.5653-2.1984-1.5703-0.81654-1.0364-1.162-2.4496-0.34546-1.4132-0.34546-3.1091v-9.2018h4.6794v8.6365q0 2.2612 0.5967 3.2662 0.59671 1.005 2.2298 1.005 0.50248 0 1.0678-0.0314 0.5653-0.0628 1.005-0.12562v-12.751h4.6794z"/>
   <path d="m128.48-195.35q0-4.5224-3.329-4.5224-0.72232 0-1.4446 0.18843-0.69092 0.18844-1.1306 0.47108v8.5109q0.34546 0.0628 0.87935 0.12562 0.53389 0.0314 1.162 0.0314 1.9157 0 2.8893-1.319 0.97356-1.319 0.97356-3.486zm4.7736 0.12562q0 1.9785-0.59671 3.5802-0.56529 1.6017-1.6645 2.7323-1.0992 1.1306-2.7009 1.7587-1.6017 0.5967-3.643 0.5967-0.84795 0-1.7901-0.0942-0.91076-0.0628-1.8215-0.18843-0.87935-0.12562-1.6959-0.28265-0.81654-0.18843-1.4446-0.37686v-23.083l4.6794-0.75373v8.2282q0.78513-0.34545 1.6331-0.53389 0.84795-0.18843 1.8215-0.18843 1.7587 0 3.1091 0.62811 1.3504 0.5967 2.2612 1.7273 0.91075 1.1306 1.3818 2.7323 0.47109 1.5703 0.47109 3.5174z"/>
   <path d="m150.97-187.53q-1.1934 0.34546-3.0777 0.62811-1.8843 0.31405-3.9571 0.31405-2.1042 0-3.5174-0.56529-1.3818-0.5653-2.1984-1.5703-0.81654-1.0364-1.162-2.4496-0.34546-1.4132-0.34546-3.1091v-9.2018h4.6794v8.6365q0 2.2612 0.5967 3.2662 0.5967 1.005 2.2298 1.005 0.50249 0 1.0678-0.0314 0.56529-0.0628 1.005-0.12562v-12.751h4.6794z"/>
   <path d="m155.36-202.92q1.1934-0.34546 3.0777-0.62811 1.8843-0.31405 3.9571-0.31405 2.1042 0 3.486 0.56529 1.4132 0.53389 2.2298 1.5389 0.81654 1.005 1.162 2.3868 0.34546 1.3818 0.34546 3.0777v9.3274h-4.6794v-8.7621q0-2.2612-0.59671-3.2034-0.5967-0.94216-2.2298-0.94216-0.50249 0-1.0678 0.0628-0.5653 0.0314-1.005 0.0942v12.751h-4.6794z"/>
   <path d="m173.7-207.6 4.6794-0.75373v4.8678h5.6216v3.8943h-5.6216v5.81q0 1.476 0.50249 2.3554 0.53389 0.87935 2.1042 0.87935 0.75373 0 1.5389-0.12562 0.81654-0.15702 1.4761-0.40827l0.65951 3.643q-0.84795 0.34546-1.8843 0.5967-1.0364 0.25124-2.5438 0.25124-1.9157 0-3.172-0.50248-1.2562-0.53389-2.0099-1.4446-0.75373-0.94216-1.0678-2.2612-0.28265-1.319-0.28265-2.9207z"/>
   <path d="m201.91-187.53q-1.1934 0.34546-3.0777 0.62811-1.8843 0.31405-3.9571 0.31405-2.1042 0-3.5174-0.56529-1.3818-0.5653-2.1984-1.5703-0.81654-1.0364-1.162-2.4496-0.34546-1.4132-0.34546-3.1091v-9.2018h4.6794v8.6365q0 2.2612 0.5967 3.2662 0.5967 1.005 2.2298 1.005 0.50249 0 1.0678-0.0314 0.56529-0.0628 1.005-0.12562v-12.751h4.6794z"/>
   <path d="m220.4-187.53q-1.1934 0.34546-3.0777 0.62811-1.8843 0.31405-3.9571 0.31405-2.1042 0-3.5174-0.56529-1.3818-0.5653-2.1984-1.5703-0.81654-1.0364-1.162-2.4496-0.34546-1.4132-0.34546-3.1091v-9.2018h4.6794v8.6365q0 2.2612 0.5967 3.2662 0.5967 1.005 2.2298 1.005 0.50249 0 1.0678-0.0314 0.56529-0.0628 1.005-0.12562v-12.751h4.6794z"/>
   <path d="m229.54-190.33q1.2876 0 1.8215-0.25124t0.53389-0.97357q0-0.5653-0.69092-0.97357-0.69092-0.43967-2.1042-0.97356-1.0992-0.40827-2.0099-0.84795-0.87936-0.43967-1.5075-1.0364-0.62811-0.62811-0.97357-1.476-0.34546-0.84795-0.34546-2.0414 0-2.324 1.7273-3.6744 1.7273-1.3504 4.7422-1.3504 1.5075 0 2.8893 0.28265 1.3818 0.25125 2.1984 0.5653l-0.81654 3.643q-0.81654-0.28265-1.7901-0.50249-0.94216-0.21984-2.1356-0.21984-2.1984 0-2.1984 1.2248 0 0.28265 0.0942 0.50249t0.37686 0.43967q0.28265 0.18844 0.75373 0.43968 0.50249 0.21984 1.2562 0.50249 1.5389 0.56529 2.5438 1.1306 1.005 0.53389 1.5703 1.1934 0.5967 0.6281 0.81654 1.4132 0.25124 0.78513 0.25124 1.8215 0 2.4496-1.8529 3.7058-1.8215 1.2562-5.1819 1.2562-2.1984 0-3.6744-0.37687-1.4446-0.37686-2.01-0.62811l0.78514-3.8q1.1934 0.47108 2.4496 0.75373 1.2562 0.25124 2.481 0.25124z"/>
   <path d="m239.25-195.1q0-2.1984 0.65951-3.8315 0.69092-1.6645 1.7901-2.7637t2.5124-1.6645q1.4446-0.5653 2.9521-0.5653 3.5174 0 5.5588 2.167 2.0414 2.1356 2.0414 6.3125 0 0.40827-0.0314 0.91076-0.0314 0.47108-0.0628 0.84794h-10.615q0.15702 1.4446 1.3504 2.2926 1.1934 0.84794 3.2034 0.84794 1.2876 0 2.5124-0.21983 1.2562-0.25125 2.0414-0.59671l0.62811 3.8001q-0.37687 0.18843-1.005 0.37686-0.62811 0.18843-1.4132 0.31406-0.75373 0.15702-1.6331 0.25124-0.87935 0.0942-1.7587 0.0942-2.2298 0-3.8943-0.65952-1.6331-0.65951-2.7323-1.7901-1.0678-1.162-1.6017-2.7323-0.50249-1.5703-0.50249-3.3918zm10.992-1.7901q-0.0314-0.5967-0.21984-1.162-0.15703-0.56529-0.53389-1.005-0.34546-0.43967-0.91076-0.72232-0.53389-0.28265-1.3504-0.28265-0.78513 0-1.3504 0.28265-0.5653 0.25124-0.94216 0.69092-0.37687 0.43967-0.59671 1.0364-0.18843 0.5653-0.28264 1.162z"/>
   <path d="m268.33-199.34q-0.6281-0.15702-1.476-0.31405-0.84794-0.18843-1.8215-0.18843-0.43968 0-1.0678 0.0942-0.5967 0.0628-0.91075 0.15703v12.625h-4.6794v-15.64q1.2562-0.43967 2.9521-0.81654 1.7273-0.40827 3.8315-0.40827 0.37686 0 0.91076 0.0628 0.53389 0.0314 1.0678 0.12562 0.53389 0.0628 1.0678 0.18844 0.53389 0.0942 0.91076 0.25124z"/>
   <path d="m276.37-190.33q1.2876 0 1.8215-0.25124 0.5339-0.25124 0.5339-0.97357 0-0.5653-0.69092-0.97357-0.69092-0.43967-2.1042-0.97356-1.0992-0.40827-2.0099-0.84795-0.87935-0.43967-1.5075-1.0364-0.62811-0.62811-0.97357-1.476-0.34546-0.84795-0.34546-2.0414 0-2.324 1.7273-3.6744 1.7273-1.3504 4.7422-1.3504 1.5074 0 2.8893 0.28265 1.3818 0.25125 2.1984 0.5653l-0.81654 3.643q-0.81654-0.28265-1.7901-0.50249-0.94216-0.21984-2.1356-0.21984-2.1984 0-2.1984 1.2248 0 0.28265 0.0942 0.50249t0.37687 0.43967q0.28265 0.18844 0.75373 0.43968 0.50248 0.21984 1.2562 0.50249 1.5389 0.56529 2.5438 1.1306 1.005 0.53389 1.5703 1.1934 0.5967 0.6281 0.81654 1.4132 0.25124 0.78513 0.25124 1.8215 0 2.4496-1.8529 3.7058-1.8215 1.2562-5.1819 1.2562-2.1984 0-3.6744-0.37687-1.4446-0.37686-2.0099-0.62811l0.78513-3.8q1.1934 0.47108 2.4496 0.75373 1.2562 0.25124 2.481 0.25124z"/>
  </g>
  <g fill="#767578" aria-label="fragen ist menschlich!">
   <path d="m102.15-180.46q0.56165 0 0.95892 0.0822 0.41096 0.0822 0.57535 0.15068l-0.23288 1.0959q-0.16439-0.0822-0.46576-0.15069-0.30138-0.0822-0.73974-0.0822-0.89042 0-1.2466 0.49315-0.35617 0.47946-0.35617 1.3014v0.61645h2.7398v1.0685h-2.7398v6.0549h-1.274v-7.7672q0-1.3699 0.67125-2.1096 0.67124-0.75344 2.1096-0.75344z"/>
   <path d="m107.29-177.11q0.16438 0 0.36986 0.0274 0.21918 0.0137 0.42467 0.0548 0.20548 0.0274 0.36986 0.0685 0.17809 0.0274 0.26028 0.0548l-0.21918 1.1096q-0.15069-0.0548-0.50685-0.12328-0.34247-0.0822-0.89043-0.0822-0.35617 0-0.71233 0.0822-0.34247 0.0685-0.45206 0.0959v5.9864h-1.274v-6.822q0.45206-0.16439 1.1233-0.30137 0.67124-0.15069 1.5069-0.15069z"/>
   <path d="m112.36-170.75q0.45206 0 0.79453-0.0137 0.35617-0.0274 0.58905-0.0822v-2.1233q-0.13699-0.0685-0.45206-0.10959-0.30138-0.0548-0.73974-0.0548-0.28767 0-0.61644 0.0411-0.31508 0.0411-0.58905 0.17808-0.26028 0.12329-0.43836 0.35617-0.17809 0.21918-0.17809 0.58905 0 0.68494 0.43836 0.95892 0.43836 0.26027 1.1918 0.26027zm-0.10959-6.3836q0.76713 0 1.2877 0.20548 0.53426 0.19179 0.84933 0.56165 0.32877 0.35617 0.46576 0.86303 0.13699 0.49316 0.13699 1.0959v4.4521q-0.16439 0.0274-0.46576 0.0822-0.28768 0.0411-0.65754 0.0822-0.36987 0.0411-0.80823 0.0685-0.42467 0.0411-0.84933 0.0411-0.60275 0-1.1096-0.12329-0.50686-0.12329-0.87672-0.38357-0.36987-0.27397-0.57535-0.71233-0.20549-0.43837-0.20549-1.0548 0-0.58905 0.23288-1.0137 0.24658-0.42467 0.65755-0.68494 0.41096-0.26028 0.95891-0.38357t1.1507-0.12329q0.19178 0 0.39727 0.0274 0.20548 0.0137 0.38356 0.0548 0.19179 0.0274 0.32877 0.0548 0.13699 0.0274 0.19179 0.0411v-0.35617q0-0.31508-0.0685-0.61645-0.0685-0.31507-0.24658-0.54795-0.17808-0.24658-0.49315-0.38357-0.30138-0.15068-0.79453-0.15068-0.63015 0-1.1096 0.0959-0.46575 0.0822-0.69863 0.17808l-0.15069-1.0548q0.24658-0.10959 0.82193-0.20548 0.57535-0.10959 1.2466-0.10959z"/>
   <path d="m121.56-170.55q-0.16438 0.1096-0.64384 0.28768-0.46576 0.16439-1.0959 0.16439-0.64385 0-1.2192-0.20549-0.56165-0.20548-0.98631-0.63014-0.42466-0.43836-0.67124-1.0822-0.24658-0.64384-0.24658-1.5343 0-0.78083 0.23288-1.4247 0.23288-0.65754 0.67124-1.1233 0.45206-0.47946 1.0959-0.73973 0.64385-0.27398 1.4521-0.27398 0.89042 0 1.548 0.13699 0.67124 0.12329 1.1233 0.23288v6.3562q0 1.6439-0.84932 2.3836-0.84933 0.73974-2.5754 0.73974-0.67124 0-1.274-0.10959-0.58904-0.10959-1.0274-0.26028l0.23288-1.1096q0.38357 0.15068 0.93152 0.26027 0.56165 0.12329 1.1644 0.12329 1.137 0 1.6302-0.45206 0.50685-0.45206 0.50685-1.4384zm-0.0137-5.2877q-0.19178-0.0548-0.52055-0.0959-0.31507-0.0548-0.86302-0.0548-1.0274 0-1.5891 0.67124-0.54796 0.67124-0.54796 1.7808 0 0.61644 0.15069 1.0548 0.16439 0.43837 0.42466 0.72604 0.27398 0.28768 0.61645 0.42466 0.35617 0.13699 0.72604 0.13699 0.50685 0 0.93151-0.13699 0.42467-0.15068 0.67124-0.34247z"/>
   <path d="m124.62-173.38q0-0.94521 0.27398-1.6438 0.27398-0.71234 0.72604-1.1781t1.0411-0.69864q0.58904-0.23288 1.2055-0.23288 1.4384 0 2.2055 0.90412 0.76713 0.89042 0.76713 2.7261 0 0.0822 0 0.21918 0 0.12329-0.0137 0.23288h-4.8768q0.0822 1.1096 0.64384 1.685 0.56165 0.57535 1.7534 0.57535 0.67124 0 1.1233-0.10959 0.46576-0.12329 0.69864-0.23288l0.17808 1.0685q-0.23288 0.12329-0.82193 0.26028-0.57535 0.13699-1.3151 0.13699-0.93152 0-1.6165-0.27398-0.67124-0.28767-1.1096-0.78083t-0.65754-1.1644q-0.20549-0.68494-0.20549-1.4932zm4.8905-0.69864q0.0137-0.86302-0.43837-1.411-0.43836-0.56165-1.2192-0.56165-0.43836 0-0.78083 0.17808-0.32877 0.16439-0.56165 0.43836-0.23288 0.27398-0.36987 0.63015-0.12329 0.35617-0.16438 0.72603z"/>
   <path d="m132.67-176.75q0.43836-0.10959 1.1644-0.23288t1.6712-0.12329q0.84933 0 1.411 0.24658 0.56165 0.23288 0.89042 0.67124 0.34247 0.42466 0.47946 1.0274t0.13699 1.3288v4h-1.274v-3.7261q0-0.65754-0.0959-1.1233-0.0822-0.46576-0.28768-0.75344-0.20548-0.28767-0.54795-0.41096-0.34247-0.13699-0.84932-0.13699-0.20549 0-0.42467 0.0137t-0.42466 0.0411q-0.19178 0.0137-0.35617 0.0411-0.15069 0.0274-0.21918 0.0411v6.0138h-1.274z"/>
   <path d="m144.97-169.83h-1.274v-7.1234h1.274zm-0.64384-8.4111q-0.34247 0-0.58905-0.21918-0.23288-0.23288-0.23288-0.61645 0-0.38356 0.23288-0.60274 0.24658-0.23288 0.58905-0.23288t0.57535 0.23288q0.24658 0.21918 0.24658 0.60274 0 0.38357-0.24658 0.61645-0.23288 0.21918-0.57535 0.21918z"/>
   <path d="m148.82-170.75q0.78083 0 1.1507-0.20548 0.38357-0.20548 0.38357-0.65754 0-0.46576-0.36987-0.73974-0.36987-0.27397-1.2192-0.61644-0.41097-0.16439-0.79453-0.32877-0.36987-0.17809-0.64385-0.41097-0.27397-0.23288-0.43836-0.56165-0.16438-0.32877-0.16438-0.80823 0-0.94522 0.69863-1.4932 0.69864-0.56165 1.9041-0.56165 0.30137 0 0.60275 0.0411 0.30137 0.0274 0.56165 0.0822 0.26027 0.0411 0.45206 0.0959 0.20548 0.0548 0.31507 0.0959l-0.23288 1.0959q-0.20548-0.10959-0.64384-0.21918-0.43837-0.12329-1.0548-0.12329-0.53426 0-0.93152 0.21918-0.39727 0.20548-0.39727 0.65754 0 0.23288 0.0822 0.41097 0.0959 0.17808 0.27397 0.32877 0.19179 0.13698 0.46576 0.26027 0.27398 0.12329 0.65754 0.26028 0.50686 0.19178 0.90413 0.38357 0.39726 0.17808 0.67124 0.42466 0.28767 0.24658 0.43836 0.60275 0.15069 0.34247 0.15069 0.84932 0 0.98632-0.73974 1.4932-0.72604 0.50686-2.0822 0.50686-0.94521 0-1.4795-0.16439-0.53425-0.15068-0.72603-0.23288l0.23288-1.0959q0.21918 0.0822 0.69863 0.24658 0.47946 0.16438 1.274 0.16438z"/>
   <path d="m154.47-176.96h2.6987v1.0685h-2.6987v3.2877q0 0.53426 0.0822 0.89043 0.0822 0.34247 0.24658 0.54795 0.16438 0.19178 0.41096 0.27397 0.24658 0.0822 0.57535 0.0822 0.57535 0 0.91782-0.12329 0.35617-0.13699 0.49316-0.19178l0.24658 1.0548q-0.19179 0.0959-0.67124 0.23288-0.47946 0.15069-1.0959 0.15069-0.72604 0-1.2055-0.17809-0.46576-0.19178-0.75344-0.56165-0.28767-0.36986-0.41096-0.90412-0.10959-0.54795-0.10959-1.2603v-6.3562l1.274-0.21918z"/>
   <path d="m161.95-176.75q0.43836-0.10959 1.1507-0.23288 0.72603-0.12329 1.6712-0.12329 0.68494 0 1.1507 0.19178 0.46576 0.17809 0.78083 0.53426 0.0959-0.0685 0.30137-0.19179 0.20549-0.12329 0.50686-0.23288 0.30137-0.12329 0.67124-0.20548 0.36987-0.0959 0.79453-0.0959 0.82193 0 1.3425 0.24658 0.52056 0.23288 0.80823 0.67124 0.30138 0.43836 0.39727 1.0411 0.10959 0.60275 0.10959 1.3151v4h-1.274v-3.7261q0-0.63015-0.0685-1.0822-0.0548-0.45206-0.23288-0.75343-0.16439-0.30137-0.46576-0.43836-0.28768-0.15069-0.75344-0.15069-0.64384 0-1.0685 0.17809-0.41097 0.16438-0.56165 0.30137 0.10959 0.35617 0.16438 0.78083 0.0548 0.42466 0.0548 0.89042v4h-1.274v-3.7261q0-0.63015-0.0685-1.0822t-0.24658-0.75343q-0.16439-0.30137-0.46576-0.43836-0.28768-0.15069-0.73974-0.15069-0.19178 0-0.41096 0.0137t-0.42466 0.0411q-0.19179 0.0137-0.35617 0.0411-0.16439 0.0274-0.21918 0.0411v6.0138h-1.274z"/>
   <path d="m173.34-173.38q0-0.94521 0.27398-1.6438 0.27397-0.71234 0.72603-1.1781t1.0411-0.69864 1.2055-0.23288q1.4384 0 2.2055 0.90412 0.76714 0.89042 0.76714 2.7261 0 0.0822 0 0.21918 0 0.12329-0.0137 0.23288h-4.8768q0.0822 1.1096 0.64384 1.685 0.56165 0.57535 1.7534 0.57535 0.67124 0 1.1233-0.10959 0.46576-0.12329 0.69864-0.23288l0.17808 1.0685q-0.23288 0.12329-0.82193 0.26028-0.57535 0.13699-1.3151 0.13699-0.93152 0-1.6165-0.27398-0.67124-0.28767-1.1096-0.78083-0.43837-0.49316-0.65755-1.1644-0.20548-0.68494-0.20548-1.4932zm4.8905-0.69864q0.0137-0.86302-0.43836-1.411-0.43836-0.56165-1.2192-0.56165-0.43836 0-0.78083 0.17808-0.32877 0.16439-0.56165 0.43836-0.23288 0.27398-0.36987 0.63015-0.12329 0.35617-0.16439 0.72603z"/>
   <path d="m181.4-176.75q0.43836-0.10959 1.1644-0.23288 0.72604-0.12329 1.6713-0.12329 0.84932 0 1.411 0.24658 0.56165 0.23288 0.89043 0.67124 0.34247 0.42466 0.47945 1.0274 0.13699 0.60275 0.13699 1.3288v4h-1.274v-3.7261q0-0.65754-0.0959-1.1233-0.0822-0.46576-0.28767-0.75344-0.20549-0.28767-0.54796-0.41096-0.34247-0.13699-0.84932-0.13699-0.20548 0-0.42466 0.0137t-0.42467 0.0411q-0.19178 0.0137-0.35617 0.0411-0.15068 0.0274-0.21918 0.0411v6.0138h-1.274z"/>
   <path d="m190.92-170.75q0.78083 0 1.1507-0.20548 0.38356-0.20548 0.38356-0.65754 0-0.46576-0.36986-0.73974-0.36987-0.27397-1.2192-0.61644-0.41096-0.16439-0.79453-0.32877-0.36987-0.17809-0.64384-0.41097-0.27398-0.23288-0.43836-0.56165-0.16439-0.32877-0.16439-0.80823 0-0.94522 0.69864-1.4932 0.69864-0.56165 1.9041-0.56165 0.30138 0 0.60275 0.0411 0.30137 0.0274 0.56165 0.0822 0.26028 0.0411 0.45206 0.0959 0.20548 0.0548 0.31507 0.0959l-0.23287 1.0959q-0.20549-0.10959-0.64385-0.21918-0.43836-0.12329-1.0548-0.12329-0.53425 0-0.93151 0.21918-0.39727 0.20548-0.39727 0.65754 0 0.23288 0.0822 0.41097 0.0959 0.17808 0.27398 0.32877 0.19178 0.13698 0.46576 0.26027 0.27397 0.12329 0.65754 0.26028 0.50686 0.19178 0.90412 0.38357 0.39727 0.17808 0.67124 0.42466 0.28768 0.24658 0.43836 0.60275 0.15069 0.34247 0.15069 0.84932 0 0.98632-0.73973 1.4932-0.72604 0.50686-2.0822 0.50686-0.94522 0-1.4795-0.16439-0.53426-0.15068-0.72604-0.23288l0.23288-1.0959q0.21918 0.0822 0.69864 0.24658t1.274 0.16438z"/>
   <path d="m198.47-169.67q-0.86302 0-1.5206-0.27398-0.64384-0.27397-1.0959-0.76713-0.43836-0.49316-0.65754-1.1644-0.21918-0.68494-0.21918-1.5069 0-0.82192 0.23288-1.5069 0.24657-0.68494 0.68494-1.1781 0.43836-0.50686 1.0685-0.78083 0.64385-0.28768 1.4247-0.28768 0.47945 0 0.95891 0.0822t0.91782 0.26028l-0.28767 1.0822q-0.28768-0.13699-0.67124-0.21918-0.36987-0.0822-0.79453-0.0822-1.0685 0-1.6439 0.67124-0.56165 0.67125-0.56165 1.9589 0 0.57535 0.12329 1.0548 0.13699 0.47946 0.41096 0.82193 0.28768 0.34247 0.72604 0.53425 0.43836 0.17809 1.0685 0.17809 0.50685 0 0.91781-0.0959 0.41097-0.0959 0.64385-0.20548l0.17808 1.0685q-0.10959 0.0685-0.31507 0.13699-0.20548 0.0548-0.46576 0.0959-0.26028 0.0548-0.56165 0.0822-0.28767 0.0411-0.56165 0.0411z"/>
   <path d="m201.74-169.83v-10.411l1.274-0.21918v3.6439q0.35617-0.13698 0.75343-0.20548 0.41097-0.0822 0.80823-0.0822 0.84933 0 1.411 0.24658 0.56165 0.23288 0.89042 0.67124 0.34247 0.42466 0.47946 1.0274t0.13699 1.3288v4h-1.274v-3.7261q0-0.65754-0.0959-1.1233-0.0822-0.46576-0.28768-0.75344-0.20548-0.28767-0.54795-0.41096-0.34247-0.13699-0.84932-0.13699-0.20549 0-0.42467 0.0274t-0.42466 0.0685q-0.19178 0.0274-0.35617 0.0685-0.15069 0.0411-0.21918 0.0685v5.9179z"/>
   <path d="m211.7-169.7q-1.1781-0.0274-1.6712-0.50686-0.49316-0.47945-0.49316-1.4932v-8.5481l1.274-0.21918v8.5618q0 0.31508 0.0548 0.52056t0.17809 0.32877 0.32877 0.19178q0.20548 0.0548 0.50686 0.0959z"/>
   <path d="m214.58-169.83h-1.274v-7.1234h1.274zm-0.64384-8.4111q-0.34247 0-0.58905-0.21918-0.23288-0.23288-0.23288-0.61645 0-0.38356 0.23288-0.60274 0.24658-0.23288 0.58905-0.23288t0.57535 0.23288q0.24657 0.21918 0.24657 0.60274 0 0.38357-0.24657 0.61645-0.23288 0.21918-0.57535 0.21918z"/>
   <path d="m219.87-169.67q-0.86303 0-1.5206-0.27398-0.64385-0.27397-1.0959-0.76713-0.43836-0.49316-0.65754-1.1644-0.21918-0.68494-0.21918-1.5069 0-0.82192 0.23288-1.5069 0.24658-0.68494 0.68494-1.1781 0.43836-0.50686 1.0685-0.78083 0.64384-0.28768 1.4247-0.28768 0.47946 0 0.95892 0.0822t0.91782 0.26028l-0.28768 1.0822q-0.28767-0.13699-0.67124-0.21918-0.36987-0.0822-0.79453-0.0822-1.0685 0-1.6438 0.67124-0.56166 0.67125-0.56166 1.9589 0 0.57535 0.12329 1.0548 0.13699 0.47946 0.41097 0.82193 0.28767 0.34247 0.72603 0.53425 0.43837 0.17809 1.0685 0.17809 0.50686 0 0.91782-0.0959t0.64384-0.20548l0.17809 1.0685q-0.10959 0.0685-0.31507 0.13699-0.20549 0.0548-0.46576 0.0959-0.26028 0.0548-0.56165 0.0822-0.28768 0.0411-0.56165 0.0411z"/>
   <path d="m223.14-169.83v-10.411l1.274-0.21918v3.6439q0.35617-0.13698 0.75344-0.20548 0.41096-0.0822 0.80823-0.0822 0.84932 0 1.411 0.24658 0.56165 0.23288 0.89043 0.67124 0.34247 0.42466 0.47945 1.0274 0.13699 0.60275 0.13699 1.3288v4h-1.274v-3.7261q0-0.65754-0.0959-1.1233-0.0822-0.46576-0.28767-0.75344-0.20549-0.28767-0.54796-0.41096-0.34247-0.13699-0.84932-0.13699-0.20548 0-0.42466 0.0274t-0.42467 0.0685q-0.19178 0.0274-0.35617 0.0685-0.15068 0.0411-0.21918 0.0685v5.9179z"/>
   <path d="m232.44-176.75q0 1.1507-0.0822 2.0959-0.0822 0.93152-0.20548 1.863h-0.79453q-0.12329-0.93152-0.20549-1.863-0.0822-0.94521-0.0822-2.0959v-2.5754h1.3699zm0.23288 6.1782q0 0.36986-0.24658 0.64384t-0.67124 0.27398-0.67124-0.27398-0.24658-0.64384q0-0.36987 0.24658-0.64385 0.24658-0.27397 0.67124-0.27397t0.67124 0.27397q0.24658 0.27398 0.24658 0.64385z"/>
  </g>
 </g>
</svg>
