<?xml version="1.0" encoding="UTF-8"?>
<svg version="1.1" viewBox="0 0 592 113.9" xmlns="http://www.w3.org/2000/svg"><g fill="#fff"><path transform="matrix(.1333 0 0 -.1333 0 113.9)" d="m465.8 0.003906h155.3v427h-155.3v-427"/><path transform="matrix(.1333 0 0 -.1333 0 113.9)" d="m155.3 0.003906h155.3v427h-155.3v-427"/><path transform="matrix(.1333 0 0 -.1333 0 113.9)" d="m621.1 427h155.3v427h-155.3v-427"/><path transform="matrix(.1333 0 0 -.1333 0 113.9)" d="m310.5 427h155.3v427h-155.3v-427"/><path transform="matrix(.1333 0 0 -.1333 0 113.9)" d="m0 427h155.3v427h-155.3v-427"/><path transform="matrix(.1333 0 0 -.1333 0 113.9)" d="m1322 640.5h108.6v-427h-84.18l-150.7 214.7v-214.7h-109.2v427h84.8l150.7-214.7v214.7"/><path transform="matrix(.1333 0 0 -.1333 0 113.9)" d="m1581 398.9h117.1c-8.14 28.45-27.25 42.69-57.34 42.69-31.32 0-51.24-14.23-59.78-42.69zm1.22-70.16c10.15-24.79 32.94-37.2 68.31-37.2 21.96 0 40.47 7.09 55.52 21.33l73.2-51.22c-30.1-37.83-73.81-56.75-131.2-56.75-51.66 0-93.03 15.14-124.2 45.46-31.1 30.29-46.65 68.63-46.65 115 0 45.98 15.25 84.41 45.75 115.3 30.49 30.92 69.32 46.37 116.5 46.37 45.54 0 83.17-15.24 112.9-45.76 29.68-30.5 44.52-68.73 44.52-114.7 0-13.42-1.41-26.04-4.26-37.83h-210.4"/><path transform="matrix(.1333 0 0 -.1333 0 113.9)" d="m2036 421.5h-63.45v-88.46c0-13.42 4.89-21.77 14.65-25.01 9.76-3.269 26.02-4.273 48.8-3.062v-91.5c-60.59-7.304-103.2-1.726-127.8 16.77-24.62 18.53-36.91 51.95-36.91 100.4v90.9h-45.75v96.98h45.75v54.91l101.2 30.5v-85.41h63.45v-96.98"/><path transform="matrix(.1333 0 0 -.1333 0 113.9)" d="m2318 204.3c-64.26 0-117.4 21.24-159.5 63.75-42.08 42.5-63.14 95.47-63.14 158.9 0 63.44 21.06 116.4 63.14 158.9 42.09 42.51 95.26 63.76 159.5 63.76 38.63 0 74.42-9.164 107.4-27.45 32.94-18.3 58.75-42.92 77.47-73.81l-94.56-54.3c-8.14 15.06-20.23 26.94-36.29 35.69-16.07 8.747-34.07 13.12-53.99 13.12-34.16 0-61.71-10.68-82.65-32.03-20.96-21.36-31.43-49.32-31.43-83.87 0-34.57 10.47-62.54 31.43-83.89 20.94-21.33 48.49-32 82.65-32 19.92 0 37.92 4.343 53.99 13.09 16.06 8.743 28.15 20.84 36.29 36.31l94.56-54.9c-18.72-31.34-44.44-56.04-77.17-74.11-32.74-18.1-68.63-27.16-107.7-27.16"/><path transform="matrix(.1333 0 0 -.1333 0 113.9)" d="m2679 302.6c17.89 0 32.63 5.886 44.23 17.68 11.58 11.8 17.37 27.03 17.37 45.76 0 18.68-5.79 33.94-17.37 45.73-11.6 11.8-26.34 17.71-44.23 17.71-17.49 0-32.02-5.911-43.62-17.71-11.58-11.79-17.37-27.05-17.37-45.73 0-18.73 5.79-33.96 17.37-45.76 11.6-11.8 26.13-17.68 43.62-17.68zm0-97.62c-45.15 0-83.57 15.57-115.3 46.67-31.73 31.11-47.58 69.24-47.58 114.4 0 45.13 15.85 83.26 47.58 114.4 31.72 31.11 70.14 46.67 115.3 46.67 45.54 0 84.07-15.57 115.6-46.67 31.51-31.1 47.27-69.23 47.27-114.4 0-45.16-15.76-83.29-47.27-114.4-31.53-31.1-70.06-46.67-115.6-46.67"/><path transform="matrix(.1333 0 0 -.1333 0 113.9)" d="m2886 213.5v445.3h101.2v-445.3h-101.2"/><path transform="matrix(.1333 0 0 -.1333 0 113.9)" d="m3195 302.6c17.89 0 32.64 5.886 44.23 17.68 11.58 11.8 17.38 27.03 17.38 45.76 0 18.68-5.8 33.94-17.38 45.73-11.59 11.8-26.34 17.71-44.23 17.71-17.49 0-32.01-5.911-43.62-17.71-11.58-11.79-17.37-27.05-17.37-45.73 0-18.73 5.79-33.96 17.37-45.76 11.61-11.8 26.13-17.68 43.62-17.68zm0-97.62c-45.13 0-83.56 15.57-115.3 46.67-31.71 31.11-47.58 69.24-47.58 114.4 0 45.13 15.87 83.26 47.58 114.4 31.73 31.11 70.16 46.67 115.3 46.67 45.55 0 84.08-15.57 115.6-46.67 31.52-31.1 47.28-69.23 47.28-114.4 0-45.16-15.76-83.29-47.28-114.4-31.52-31.1-70.05-46.67-115.6-46.67"/><path transform="matrix(.1333 0 0 -.1333 0 113.9)" d="m3509 326.6c12.01-11.98 27.54-17.99 46.66-17.99 19.14 0 34.67 6.007 46.67 17.99 11.99 12 18.01 27.14 18.01 45.46 0 18.28-6.02 33.44-18.01 45.43-12 12.01-27.53 18.01-46.67 18.01-19.12 0-34.65-6-46.66-18.01-12.01-11.98-17.98-27.15-17.98-45.43 0-18.31 5.97-33.46 17.98-45.46zm111.3 191.9h100v-292.8c0-24.41-4.59-46.06-13.73-64.97-9.14-18.92-21.44-33.95-36.91-45.14-15.45-11.19-32.43-19.51-50.93-25.01-18.52-5.488-38.14-8.23-58.86-8.23-33.78 0-63.86 6.305-90.29 18.89-26.45 12.63-46.36 31.13-59.79 55.54l84.19 48.78c14.64-23.16 36.18-34.76 64.66-34.76 18.3 0 33.15 4.68 44.52 14.03 11.4 9.348 17.1 22.98 17.1 40.87v29.26c-20.75-25.22-49.23-37.8-85.4-37.8-41.9 0-76.56 15.03-104 45.14-27.45 30.08-41.18 66.69-41.18 109.8 0 43.1 13.73 79.7 41.18 109.8 27.45 30.08 62.11 45.13 104 45.13 36.17 0 64.65-12.61 85.4-37.83v29.28"/><path transform="matrix(.1333 0 0 -.1333 0 113.9)" d="m3964 527c32.94 0 59.87-11.28 80.81-33.85 20.95-22.57 31.43-55.02 31.43-97.32v-182.4h-101.3v169.6c0 15.87-4.19 27.85-12.52 35.99-8.32 8.125-19.42 12.2-33.24 12.2-15.87 0-28.14-4.77-36.89-14.34-8.75-9.563-13.13-23.28-13.13-41.17v-162.3h-101.3v305h101.3v-30.5c18.31 26.01 46.58 39.04 84.81 39.04"/><path transform="matrix(.1333 0 0 -.1333 0 113.9)" d="m4224 398.9h117.1c-8.15 28.45-27.27 42.69-57.35 42.69-31.31 0-51.25-14.23-59.79-42.69zm1.23-70.16c10.15-24.79 32.95-37.2 68.31-37.2 21.95 0 40.48 7.09 55.53 21.33l73.18-51.22c-30.09-37.83-73.81-56.75-131.1-56.75-51.67 0-93.04 15.14-124.2 45.46-31.1 30.29-46.65 68.63-46.65 115 0 45.98 15.24 84.41 45.74 115.3 30.5 30.92 69.33 46.37 116.5 46.37 45.55 0 83.17-15.24 112.8-45.76 29.68-30.5 44.53-68.73 44.53-114.7 0-13.42-1.42-26.04-4.26-37.83h-210.4"/></g></svg>
